<svg width="18" height="17" viewBox="0 0 18 17" fill="none" xmlns="http://www.w3.org/2000/svg">
<path d="M12.4 1.55125C13.3634 1.55402 14.2865 1.92379 14.9677 2.57979C15.649 3.23579 16.0329 4.12473 16.0358 5.05245V12.0541C16.0329 12.9818 15.649 13.8707 14.9677 14.5267C14.2865 15.1828 13.3634 15.5525 12.4 15.5553H5.12903C4.16562 15.5525 3.2425 15.1828 2.56127 14.5267C1.88003 13.8707 1.49605 12.9818 1.49317 12.0541V5.05245C1.49605 4.12473 1.88003 3.23579 2.56127 2.57979C3.2425 1.92379 4.16562 1.55402 5.12903 1.55125H12.4ZM12.4 0.151001H5.12903C2.32949 0.151001 0.0390625 2.3566 0.0390625 5.05245V12.0541C0.0390625 14.7499 2.32949 16.9555 5.12903 16.9555H12.4C15.1995 16.9555 17.4899 14.7499 17.4899 12.0541V5.05245C17.4899 2.3566 15.1995 0.151001 12.4 0.151001Z" fill="#D5D5D5"/>
<path d="M13.4912 5.05272C13.2755 5.05272 13.0646 4.99112 12.8853 4.87571C12.7059 4.76031 12.5661 4.59627 12.4836 4.40436C12.401 4.21244 12.3794 4.00127 12.4215 3.79753C12.4636 3.5938 12.5674 3.40665 12.72 3.25977C12.8725 3.11288 13.0669 3.01286 13.2784 2.97233C13.49 2.9318 13.7093 2.9526 13.9086 3.0321C14.1079 3.11159 14.2782 3.24621 14.3981 3.41893C14.5179 3.59164 14.5819 3.79471 14.5819 4.00243C14.5822 4.14044 14.5542 4.27715 14.4995 4.40471C14.4448 4.53227 14.3645 4.64817 14.2631 4.74576C14.1618 4.84334 14.0414 4.9207 13.909 4.97337C13.7765 5.02605 13.6345 5.05301 13.4912 5.05272ZM8.76506 5.75266C9.34033 5.75266 9.90268 5.91692 10.381 6.22469C10.8593 6.53245 11.2321 6.96989 11.4523 7.48169C11.6724 7.99348 11.73 8.55664 11.6178 9.09996C11.5056 9.64328 11.2285 10.1423 10.8218 10.5341C10.415 10.9258 9.89672 11.1925 9.3325 11.3006C8.76829 11.4087 8.18346 11.3532 7.65199 11.1412C7.12051 10.9292 6.66625 10.5702 6.34664 10.1096C6.02704 9.64902 5.85645 9.1075 5.85645 8.55354C5.85728 7.81094 6.16399 7.09899 6.70928 6.57389C7.25457 6.0488 7.9939 5.75345 8.76506 5.75266ZM8.76506 4.3524C7.9022 4.3524 7.05871 4.59879 6.34127 5.06042C5.62382 5.52205 5.06464 6.17817 4.73444 6.94583C4.40423 7.71349 4.31784 8.5582 4.48617 9.37314C4.65451 10.1881 5.07002 10.9366 5.68016 11.5242C6.29029 12.1117 7.06765 12.5118 7.91394 12.6739C8.76022 12.8361 9.63742 12.7529 10.4346 12.4349C11.2318 12.1169 11.9131 11.5784 12.3925 10.8876C12.8719 10.1967 13.1278 9.38444 13.1278 8.55354C13.1278 7.43933 12.6681 6.37075 11.85 5.58289C11.0318 4.79502 9.92213 4.3524 8.76506 4.3524Z" fill="#D5D5D5"/>
</svg>
