<svg width="19" height="19" viewBox="0 0 19 19" fill="none" xmlns="http://www.w3.org/2000/svg">
<path d="M9.82294 0.689209C4.9269 0.689209 0.957031 4.65731 0.957031 9.55116C0.957031 13.179 3.14184 16.2965 6.2647 17.6693C6.24096 17.0522 6.26075 16.3084 6.41907 15.6358C6.58926 14.9158 7.55897 10.8053 7.55897 10.8053C7.55897 10.8053 7.27399 10.2395 7.27399 9.40478C7.27399 8.09131 8.03393 7.11017 8.98385 7.11017C9.79128 7.11017 10.1792 7.71547 10.1792 8.43946C10.1792 9.25049 9.66066 10.4611 9.39548 11.5847C9.17383 12.5262 9.86648 13.2898 10.7966 13.2898C12.4748 13.2898 13.6068 11.1337 13.6068 8.57793C13.6068 6.63542 12.2967 5.18349 9.91793 5.18349C7.23046 5.18349 5.55226 7.18929 5.55226 9.42852C5.55226 10.2 5.78183 10.7459 6.13805 11.1653C6.30033 11.3592 6.32407 11.4383 6.2647 11.6598C6.22117 11.822 6.12617 12.2137 6.08264 12.372C6.02327 12.5975 5.8412 12.6766 5.63934 12.5935C4.40049 12.0871 3.82262 10.7341 3.82262 9.20697C3.82262 6.69081 5.94806 3.67221 10.1594 3.67221C13.5435 3.67221 15.7718 6.12111 15.7718 8.74805C15.7718 12.2256 13.8364 14.8209 10.9866 14.8209C10.0288 14.8209 9.13029 14.3026 8.82157 13.7171C8.82157 13.7171 8.30703 15.7585 8.19621 16.1541C8.01018 16.8385 7.64209 17.519 7.30566 18.0531C8.12175 18.2937 8.96812 18.4163 9.81898 18.4171C14.715 18.4171 18.6849 14.449 18.6849 9.55512C18.6849 4.66126 14.719 0.689209 9.82294 0.689209Z" fill="#D4D4D4"/>
</svg>
