<svg width="20" height="16" viewBox="0 0 20 16" fill="none" xmlns="http://www.w3.org/2000/svg">
<path d="M19.1837 1.84658C18.4823 2.15133 17.7402 2.3521 16.9809 2.44256C17.7789 1.97527 18.379 1.2329 18.6687 0.354686C17.9142 0.795862 17.0902 1.10541 16.2318 1.27008C15.8704 0.891272 15.4357 0.589923 14.9542 0.384346C14.4726 0.178769 13.9543 0.0732577 13.4307 0.0742253C11.3109 0.0742253 9.59545 1.76478 9.59545 3.84875C9.59394 4.13863 9.62716 4.42764 9.69439 4.70961C8.17433 4.63835 6.68588 4.25058 5.32426 3.57112C3.96265 2.89165 2.75786 1.93545 1.78696 0.76369C1.44635 1.3379 1.26622 1.99306 1.26538 2.66069C1.26538 3.96951 1.94823 5.12641 2.97931 5.80419C2.36842 5.78969 1.77005 5.628 1.235 5.33286V5.3796C1.235 7.21038 2.5594 8.73344 4.31227 9.08012C3.98265 9.16799 3.64297 9.21251 3.30184 9.21256C3.05978 9.21298 2.81827 9.18949 2.58082 9.14244C3.06812 10.6421 4.48639 11.7328 6.16643 11.764C4.80128 12.8161 3.12523 13.3847 1.40172 13.3805C1.09579 13.3801 0.790147 13.3618 0.486328 13.326C2.23966 14.4456 4.27778 15.0378 6.35808 15.0321C13.4226 15.0321 17.282 9.27878 17.282 4.28892C17.282 4.12532 17.2777 3.96172 17.2699 3.80201C18.019 3.26916 18.6671 2.60698 19.1837 1.84658Z" fill="#D4D4D4"/>
</svg>
